<svg width="47" height="41" viewBox="0 0 47 41" fill="none" xmlns="http://www.w3.org/2000/svg">
<path fill-rule="evenodd" clip-rule="evenodd" d="M13.268 6.5755C16.4365 4.89677 20.0946 4.24985 23.6881 4.73963L23.9686 2.68165L23.6881 4.73963C27.2814 5.22939 30.5991 6.82667 33.1459 9.27539C33.161 9.28995 33.1764 9.30428 33.1919 9.31837L38.8272 14.4176H31.738C30.5885 14.4176 29.6566 15.3494 29.6566 16.4989C29.6566 17.6484 30.5885 18.5803 31.738 18.5803H44.2262C45.3757 18.5803 46.3075 17.6484 46.3075 16.4989V4.49893C46.3075 3.34943 45.3757 2.41757 44.2262 2.41757C43.0766 2.41757 42.1448 3.34943 42.1448 4.49893V11.8056L36.0078 6.25236C32.8156 3.19279 28.6888 1.22001 24.2502 0.615043C19.8013 0.00866866 15.2641 0.80702 11.3191 2.89717L12.2898 4.72912L11.3191 2.89718C7.37316 4.9879 4.22488 8.26333 2.36459 12.244L4.23646 13.1188L2.36458 12.244C0.503583 16.2262 0.0379949 20.6882 1.04321 24.9527C2.04812 29.2162 4.4644 33.035 7.90975 35.8419C11.3539 38.648 15.6425 40.2942 20.1277 40.5462C24.6126 40.7984 29.068 39.6441 32.8238 37.2465C36.5807 34.8483 39.4405 31.3313 40.9545 27.2134C41.3511 26.1345 40.798 24.9383 39.7191 24.5416C38.6403 24.145 37.4441 24.698 37.0474 25.7769C35.8556 29.0186 33.5932 31.8168 30.584 33.7378C27.5737 35.6594 23.9854 36.5939 20.3614 36.3901L20.3613 36.3901C16.7374 36.1865 13.2908 34.8566 10.5391 32.6147L10.539 32.6147C7.78866 30.374 5.88431 27.3469 5.0949 23.9976L5.09489 23.9976C4.3057 20.6496 4.6692 17.1447 6.13581 14.0064C7.60316 10.8666 10.1007 8.25365 13.268 6.5755Z" fill="white"/>
</svg>
