<svg width="41" height="39" viewBox="0 0 41 39" fill="none" xmlns="http://www.w3.org/2000/svg">
<path fill-rule="evenodd" clip-rule="evenodd" d="M21.9048 4.12353C22.7337 3.32707 22.7599 2.00949 21.9635 1.18062C21.167 0.351764 19.8494 0.325498 19.0206 1.12196L1.33204 18.119C0.936237 18.4979 0.689758 19.0316 0.689758 19.6227C0.689758 20.2132 0.935658 20.7463 1.33064 21.1251L19.0206 38.1235C19.8494 38.92 21.167 38.8937 21.9635 38.0649C22.7599 37.236 22.7337 35.9184 21.9048 35.122L7.94111 21.7041H38.1543C39.3038 21.7041 40.2357 20.7722 40.2357 19.6227C40.2357 18.4732 39.3038 17.5414 38.1543 17.5414H7.94111L21.9048 4.12353Z" fill="white"/>
</svg>
