<svg width="40" height="39" viewBox="0 0 40 39" fill="none" xmlns="http://www.w3.org/2000/svg">
<path fill-rule="evenodd" clip-rule="evenodd" d="M21.5318 1.12196C20.703 0.325497 19.3854 0.351764 18.5889 1.18063C17.7925 2.00949 17.8187 3.32707 18.6476 4.12353L32.6113 17.5414H2.39813C1.24863 17.5414 0.316772 18.4732 0.316772 19.6227C0.316772 20.7722 1.24863 21.7041 2.39813 21.7041H32.6113L18.6476 35.122C17.8187 35.9184 17.7925 37.236 18.5889 38.0649C19.3854 38.8937 20.703 38.92 21.5318 38.1235L39.2234 21.1235C39.2817 21.0676 39.3363 21.0086 39.3871 20.947C39.6707 20.6031 39.8372 20.1761 39.86 19.7286C39.8618 19.6934 39.8627 19.6581 39.8627 19.6227C39.8627 19.5971 39.8622 19.5716 39.8613 19.5461C39.8441 19.0782 39.6695 18.6309 39.3682 18.2759C39.3228 18.2224 39.2745 18.171 39.2234 18.122L21.5318 1.12196Z" fill="white"/>
</svg>
