<svg width="42" height="40" viewBox="0 0 42 40" fill="none" xmlns="http://www.w3.org/2000/svg">
<path fill-rule="evenodd" clip-rule="evenodd" d="M22.3394 0.0962235C21.6334 -0.383474 20.706 -0.383474 20 0.0962229L1.26774 12.8235C0.697477 13.211 0.356079 13.8556 0.356079 14.5451V34.5451C0.356079 36.1593 1.09254 37.6401 2.28734 38.6838C3.47326 39.7199 5.02822 40.2628 6.60016 40.2628H35.7392C37.3112 40.2628 38.8661 39.7198 40.052 38.6839C41.2469 37.6401 41.9833 36.1593 41.9833 34.5451V14.5451C41.9833 13.8556 41.6419 13.211 41.0717 12.8235L22.3394 0.0962235ZM4.5188 34.5451V15.6473L21.1697 4.33413L37.8206 15.6473V34.5451C37.8206 34.8596 37.6799 35.2287 37.3134 35.5489C36.9379 35.8769 36.3752 36.1001 35.7392 36.1001H29.4951V19.9996C29.4951 18.8501 28.5633 17.9182 27.4138 17.9182H14.9256C13.7761 17.9182 12.8442 18.8501 12.8442 19.9996V36.1001H6.60016C5.96408 36.1001 5.40143 35.8769 5.02604 35.5489L3.65969 37.1129L5.02602 35.5489C4.65947 35.2287 4.5188 34.8596 4.5188 34.5451ZM17.007 36.1001H25.3324V22.081H17.007V36.1001Z" fill="white"/>
</svg>
